<svg class="svg-icon" style="width: 1em;height: 1em;vertical-align: middle;fill: currentColor;overflow: hidden;" viewBox="0 0 1024 1024" version="1.1" xmlns="http://www.w3.org/2000/svg"><path d="M512 85.333333c235.648 0 426.666667 191.018667 426.666667 426.666667s-191.018667 426.666667-426.666667 426.666667S85.333333 747.648 85.333333 512 276.352 85.333333 512 85.333333z m0 64a362.666667 362.666667 0 1 0 320.341333 192.426667l-6.997333-12.501333-303.232 303.189333a74.666667 74.666667 0 0 1-100.266667 4.864l-5.290666-4.864L297.386667 513.28a32 32 0 0 1 41.642666-48.341333l3.584 3.114666 119.168 119.168a10.666667 10.666667 0 0 0 12.8 1.706667l2.304-1.706667 310.826667-310.826666A361.856 361.856 0 0 0 512 149.333333z" fill="#000000" /></svg>